Coordinates
version=1
nRows=11
nColumns=52
inDegrees=yes

Units are S.I. units (second, meters, Newtons, ...)
If the header above contains a line with 'inDegrees', this indicates whether rotational values are in degrees (yes) or radians (no).

endheader
time	pelvis_tilt	pelvis_list	pelvis_rotation	pelvis_tx	pelvis_ty	pelvis_tz	hip_flexion_r	hip_adduction_r	hip_rotation_r	knee_angle_r	knee_angle_r_beta	ankle_angle_r	subtalar_angle_r	mtp_angle_r	hip_flexion_l	hip_adduction_l	hip_rotation_l	knee_angle_l	knee_angle_l_beta	ankle_angle_l	subtalar_angle_l	mtp_angle_l	lumbar_bending	lumbar_extension	lumbar_twist	thorax_bending	thorax_extension	thorax_twist	head_bending	head_extension	head_twist	scapula_abduction_r	scapula_elevation_r	scapula_upward_rot_r	scapula_abduction_l	scapula_elevation_l	scapula_upward_rot_l	shoulder_r_x	shoulder_r_y	shoulder_r_z	shoulder_l_x	shoulder_l_y	shoulder_l_z	elbow_flexion_r	elbow_flexion_l	pro_sup_r	pro_sup_l	wrist_flexion_r	wrist_deviation_r	wrist_flexion_l	wrist_deviation_l
      2.43333000	    -82.66645768	      5.32975945	    -21.21066368	     -0.26431835	     -0.07784214	     89.74389864	     67.81222511	    -31.18807578	    -39.86723046	      0.17589203	      0.00306990	    -28.16669452	     -0.15723837	     14.06650651	     56.87807452	     -3.85568441	     39.94725790	     27.53223319	      0.48052812	     29.68572884	    -19.80315547	     -8.50532485	     64.69745062	    -64.71213323	     14.86390287	     29.75624721	     20.52939005	    -38.71880292	     49.19120978	    -62.40029065	     49.03994771	    -51.59778194	      5.54851261	    -17.10945820	    -51.59833569	    -11.45915453	    -13.55959615	     25.69261541	      2.12050079	     40.56755921	    179.74958396	   -229.50458439	     89.82024279	     48.59876323	     -2.13921369	     33.49000119	     55.97886346	     -6.81129894	    -19.76516594	    -33.37364310	     -0.44998602
      2.46667000	    -83.50584186	      5.73771863	    -19.61024978	     -0.27050475	     -0.04637059	     89.62400424	     66.39012102	    -31.50178486	    -39.63661230	      1.65279589	      0.02884673	    -27.10020739	     -0.87095814	     13.17897238	     59.04506237	     -3.81918123	     39.91708379	     27.77578512	      0.48477890	     28.77928927	    -18.81052921	     -8.15691187	     64.66598575	    -64.69124317	     14.84834317	     29.73899951	     19.10728403	    -37.10861894	     38.62815416	    -62.35027861	     50.82260907	    -51.61214905	      3.54224034	    -17.03094686	    -53.48758438	     -8.78413916	    -10.76337971	     26.88501632	      2.30027712	     37.88357844	    178.17461158	   -230.64481012	     88.98175370	     44.74680549	     -0.86849257	     33.68886133	     55.92675994	     -6.35944863	    -18.82083917	    -33.74594063	     -0.58695490
      2.50000000	    -85.08292587	      3.73063608	    -18.78090110	     -0.27078698	     -0.03100496	     88.72972616	     64.04250746	    -29.27006223	    -39.87971305	      1.07090826	      0.01869088	    -23.68495614	     -5.82409327	      7.97768075	     60.69641954	     -6.67853356	     39.93517628	     24.59670403	      0.42929347	     29.02616394	    -19.12512819	     -5.90724203	     64.68163421	    -64.70829637	     14.85146464	     29.74937665	     20.26908128	    -46.46211561	    -44.07966981	    -62.40614980	     -5.85495268	    -51.59844072	      5.41089838	    -17.09522879	    -58.17198217	    -10.95820448	     -7.59834451	     19.01666106	      8.15573594	     43.11533522	    174.62579196	   -234.36097157	     86.10827278	     36.00135969	     -9.31291951	     30.72360177	     61.36494531	     -4.75796733	    -25.81533958	    -28.06455369	     -0.29384214
      2.53333000	    -82.64309882	      5.20060658	    -19.65368777	     -0.28837441	     -0.00514305	     88.73059677	     64.66079531	    -30.22938585	    -36.95454479	      5.15646437	      0.08999728	    -22.51891031	     -6.68472431	      6.83708735	     61.81279844	     -6.89752171	     38.20951089	     24.30461135	      0.42419549	     24.32757282	    -14.02536183	     -5.90510479	     61.20381013	    -63.58524536	     13.50992810	     27.46507567	     12.73696408	    -43.03630351	    -35.78424938	    -61.73830385	    -10.89533947	    -52.49116495	      1.18752338	    -14.25563445	    -67.70842140	     -6.88626318	      2.88914775	      3.40819612	     25.19135302	     53.40277684	    171.71862814	   -238.31847454	     82.29611318	     31.24574954	    -12.95335167	    -27.98152298	     13.84356279	    -14.58885848	    -29.98323920	    -19.78617027	    -42.50081177
      2.56667000	    -80.03577155	      7.67474906	    -18.05557783	     -0.26335223	     -0.01201349	     88.82182772	     62.27311253	    -34.06510219	    -39.15090750	      6.15838908	      0.10748417	    -23.51025787	     -5.35307772	      5.16081622	     57.02563318	     -3.31692296	     39.51534740	     23.62078462	      0.41226046	     25.87001262	    -15.45948881	     -5.46690844	     63.15871968	    -64.33299402	     14.54863915	     29.38825263	     14.09810950	    -38.89580491	     35.13486034	    -62.05911935	     28.32253248	    -51.90065859	      4.12065914	    -16.58961116	    -58.13280512	     -5.90091202	     19.65659743	     20.50101317	      5.75798260	     46.35027764	    169.41843637	   -240.41566861	     82.70135636	     42.64439145	    -12.62569544	     10.77226964	     37.51029351	     -2.48775826	    -21.70369567	    -29.91363596	    -21.05828066
      2.60000000	    -82.92968462	      9.16717935	    -11.87900461	     -0.26153756	     -0.00811821	     89.71705226	     56.23784566	    -33.87673717	    -39.89206058	      1.65121102	      0.02881907	    -33.04714639	     -9.85561468	     12.67028783	     59.53451115	     -3.17061855	     39.94261511	     19.56006170	      0.34138748	     29.41867034	    -19.62342224	     -6.65484917	     64.68899761	    -64.69436866	     14.86692227	     29.75171720	     19.68879850	    -33.68536568	     57.66146177	    -62.41390433	     -1.17607339	    -51.60110516	      5.61171435	    -17.11137447	    -51.71622258	    -11.26540074	     -6.45232283	     21.29050629	      1.41643566	     42.05400036	    179.85029679	   -230.79428826	     89.88393802	     47.07912032	     -3.40931423	     42.40223409	     59.82023096	    -10.22728206	    -14.03209853	    -29.86308134	     -5.06381318
      2.63333000	    -77.17646976	      9.26582681	     -7.87052678	     -0.26868242	      0.02583777	     89.16761748	     50.47140317	    -36.74289916	    -39.89838464	      3.00466245	      0.05244125	    -35.13718207	    -13.86832139	     18.29724954	     54.27372429	     -0.17202206	     39.93696181	     16.38452562	      0.28596392	     28.52053004	    -18.75836955	     -6.84642632	     64.69683741	    -64.71334074	     14.85891435	     29.75428248	     15.93930122	    -32.99914178	     40.95237338	    -62.10683073	     82.09300928	    -51.60308334	      5.58547796	    -17.12469101	    -51.88766261	    -11.33140427	     -2.51969906	     15.79814020	      2.85861088	     47.46283801	    179.74888391	   -231.72958187	     89.81795778	     54.46566881	      4.28049730	     44.27088377	     64.02171948	     -8.23863856	    -18.76169587	    -33.03809077	     -7.71072301
      2.66667000	    -80.24420940	     10.45302258	    -15.42866650	     -0.27320131	      0.02577146	     88.57905068	     58.86732360	    -29.26603068	    -37.98996428	      7.36252584	      0.12850032	    -29.52807657	    -10.10180973	     13.64306677	     59.44818349	     -6.20580517	     38.94649827	     25.14905203	      0.43893376	     26.58931846	    -16.20063361	     -6.60926857	     62.27524966	    -63.91687741	     14.15848871	     27.86941087	     10.18204721	    -44.12100187	    -56.64599805	    -61.47541503	     34.19590425	    -52.14216935	      4.00198616	    -14.61805845	    -55.08434578	     -9.37221634	      5.84211805	     20.92262469	      8.76540378	     52.46479959	    176.90830352	   -242.16097633	     87.15651343	     43.95476476	     -5.07935758	     46.71112980	     66.52808051	     -5.36073412	    -17.17424952	    -25.12965341	     -7.85838141
      2.70000000	    -80.92355286	      8.50607069	    -12.85974705	     -0.24186304	      0.01894654	     87.68720269	     56.06161521	    -32.87063094	    -39.84965122	      6.42857487	      0.11219980	    -31.41717973	    -11.10546382	     13.19985435	     59.24655527	     -6.38821873	     39.92289898	     23.51110223	      0.41034614	     29.40583384	    -18.12647168	     -7.42099706	     64.63356021	    -64.67228245	     14.85100210	     29.71938669	     15.72766606	    -46.17881590	    -57.37411709	    -62.39203598	     -5.81078036	    -51.62528578	      5.62824819	    -17.02899281	    -52.00260507	    -10.78999268	      1.90886604	     14.39426444	     10.83656945	     51.04553992	    178.47026229	   -241.27141015	     89.02372014	     44.07926055	     -6.26024542	     48.11378329	     67.57306716	     -4.28417891	    -18.53481377	    -24.34630808	     -8.54221863
      2.73333000	    -82.75962920	      8.92079152	    -12.92484059	     -0.25337019	      0.02792432	     87.23301801	     61.24140723	    -33.66529319	    -37.33064357	      9.10492536	      0.15891093	    -27.89997296	     -8.54517678	     10.94471872	     64.34618299	     -6.98809955	     38.46855505	     25.27038557	      0.44105143	     24.60594825	    -13.21886889	     -6.48151054	     58.04484195	    -63.50344293	     13.82517330	     27.65513391	     12.83039574	    -41.73651209	    -47.82907259	    -61.20273299	    -16.57550170	    -52.65811045	      3.79759378	    -14.00427958	    -57.47267391	     -7.97056729	      5.33805454	     15.61779390	     16.24238301	     49.82879826	    174.70329205	   -244.11031142	     85.44205816	     45.03672728	     -3.37825069	     48.37911138	     67.57526972	     -4.06863466	    -18.88583918	    -25.33244787	     -8.96662993
      2.76667000	    -82.41782896	     10.16279140	    -13.23318434	     -0.23806257	      0.03237910	     86.71563572	     60.14777287	    -33.46541599	    -39.91328839	      9.73126553	      0.16984262	    -27.52056119	     -8.92856658	     10.41105642	     63.65781433	     -8.26057890	     39.95222639	     25.53108830	      0.44560155	     26.31201158	    -13.64285093	     -6.39241296	     58.20808770	    -64.69096044	     14.86274461	     29.71561437	     12.02973806	    -43.09610814	    -42.39102150	    -62.41145309	    -21.66004179	    -51.60084043	      5.62465313	    -16.69666559	    -57.13168912	    -10.24347642	      6.44807981	     14.57519755	     13.82501278	     50.77677399	    175.71761577	   -244.82175210	     86.94626302	     45.55266989	     -2.58416020	     48.40894328	     67.69217964	     -4.21494935	    -18.84554376	    -25.38916952	     -9.14217486
